<svg width="243" height="88" viewBox="0 0 243 88" fill="none" xmlns="http://www.w3.org/2000/svg">
<g clip-path="url(#clip0_9014_29040)">
<path d="M107.019 78.2176C105.409 81.0897 103.119 83.5212 100.351 85.2978C97.5554 87.0991 94.1417 87.9997 90.1095 87.9997C87.5271 88.0272 84.9648 87.543 82.57 86.5748C80.3187 85.6687 78.2735 84.3158 76.5575 82.5975C74.8415 80.8791 73.4901 78.8308 72.5846 76.5757C71.6165 74.1493 71.1333 71.5561 71.1624 68.9433C71.153 66.4394 71.6241 63.957 72.5502 61.6313C74.3234 57.0834 77.8188 53.422 82.2747 51.4448C84.6268 50.4045 87.1743 49.8816 89.7453 49.9114C92.366 49.8636 94.9693 50.3483 97.3979 51.3364C99.5375 52.2169 101.454 53.5644 103.008 55.2808C104.55 57.0059 105.723 59.0297 106.453 61.227C107.248 63.6291 107.642 66.1463 107.62 68.677V69.5201C107.573 69.7839 107.548 70.051 107.546 70.3189C107.496 70.5838 107.473 70.853 107.477 71.1225H80.5621C80.7111 72.4442 81.121 73.723 81.7678 74.8845C82.345 75.898 83.112 76.7903 84.0267 77.5125C84.9037 78.2087 85.9062 78.7293 86.9795 79.0459C88.0426 79.3676 89.1465 79.5337 90.2571 79.539C92.1705 79.6157 94.0609 79.0991 95.6705 78.0598C97.0782 77.0879 98.2394 75.7996 99.0613 74.2978L107.019 78.2176ZM98.3477 64.3431C98.2685 63.6066 98.0585 62.8903 97.7277 62.2279C97.3314 61.4058 96.7875 60.6637 96.1233 60.0387C95.3617 59.3188 94.4719 58.7485 93.5002 58.3574C92.3041 57.8924 91.0279 57.6696 89.7453 57.7017C87.7963 57.6629 85.8905 58.2791 84.3318 59.452C82.7332 60.6789 81.5802 62.397 81.0493 64.3431H98.3477Z" fill="white"/>
<path d="M136.094 83.0346H135.509C134.366 84.4199 133 85.6046 131.468 86.5402C129.89 87.5264 127.861 88.0194 125.381 88.0194C123.603 88.0305 121.838 87.7215 120.169 87.1073C118.607 86.5341 117.163 85.6803 115.907 84.5878C114.693 83.5179 113.724 82.1975 113.067 80.7173C112.372 79.1558 112.023 77.4619 112.044 75.7523C112.017 74.0235 112.391 72.3121 113.136 70.7527C113.867 69.268 114.911 67.9607 116.197 66.9217C117.569 65.8105 119.141 64.9736 120.828 64.4564C122.705 63.8828 124.659 63.6002 126.621 63.6182C128.555 63.578 130.487 63.7616 132.379 64.1655C133.642 64.4568 134.884 64.8357 136.094 65.2995V64.205C136.108 63.2976 135.912 62.3994 135.52 61.5814C135.127 60.7633 134.551 60.0478 133.835 59.4914C132.245 58.2241 130.256 57.5652 128.225 57.6326C124.918 57.6326 122.129 59.0197 119.859 61.7939L112.935 57.0458C116.714 52.2764 121.885 49.89 128.447 49.8867C133.988 49.8867 138.215 51.1884 141.129 53.7917C144.042 56.395 145.499 60.2523 145.499 65.3636V87.9011H136.099L136.094 83.0346ZM136.094 72.3009C134.988 71.7703 133.834 71.3428 132.649 71.0239C131.375 70.6912 130.063 70.5254 128.747 70.5308C126.45 70.5308 124.69 71.0239 123.466 72.01C122.889 72.4352 122.42 72.9906 122.096 73.6314C121.773 74.2721 121.605 74.9801 121.606 75.698C121.59 76.385 121.745 77.0651 122.057 77.677C122.369 78.289 122.828 78.8136 123.392 79.2036C124.584 80.0826 126.032 80.5451 127.512 80.5201C129.839 80.5373 132.079 79.6316 133.742 78.0006C135.254 76.4764 136.105 74.4156 136.109 72.2664L136.094 72.3009Z" fill="white"/>
<path d="M147.886 49.7988H158.983L168.309 73.8352H168.801L178.324 49.7988H189.102L173.231 87.902H163.742L147.886 49.7988Z" fill="white"/>
<path d="M208.748 49.8872C211.356 49.8556 213.945 50.3399 216.366 51.3121C218.609 52.2074 220.646 53.5534 222.351 55.2671C224.055 56.9808 225.392 59.026 226.278 61.2767C228.167 66.2127 228.167 71.6747 226.278 76.6107C225.394 78.8625 224.058 80.9088 222.353 82.6228C220.648 84.3367 218.611 85.682 216.366 86.5752C211.466 88.475 206.035 88.475 201.135 86.5752C198.89 85.682 196.852 84.3367 195.147 82.6228C193.442 80.9088 192.107 78.8625 191.223 76.6107C189.327 71.6759 189.327 66.2115 191.223 61.2767C192.109 59.026 193.445 56.9808 195.15 55.2671C196.854 53.5534 198.891 52.2074 201.135 51.3121C203.554 50.3402 206.141 49.856 208.748 49.8872ZM208.748 79.1647C209.961 79.1667 211.163 78.9322 212.286 78.4744C213.418 78.0146 214.446 77.3303 215.308 76.4627C216.213 75.5473 216.92 74.4546 217.385 73.253C218.409 70.4717 218.409 67.4157 217.385 64.6344C216.917 63.4342 216.211 62.3421 215.308 61.4246C214.446 60.5585 213.418 59.8759 212.286 59.4179C211.163 58.9584 209.961 58.7222 208.748 58.7227C207.524 58.7154 206.312 58.9517 205.18 59.4179C204.06 59.8802 203.045 60.5625 202.193 61.4246C201.29 62.3421 200.583 63.4342 200.116 64.6344C199.092 67.4157 199.092 70.4717 200.116 73.253C200.58 74.4546 201.287 75.5473 202.193 76.4627C203.044 77.3263 204.06 78.0103 205.18 78.4744C206.312 78.9389 207.525 79.1735 208.748 79.1647Z" fill="white"/>
<path d="M233.453 87.9007V33.1719H243V87.9007H233.453Z" fill="white"/>
<path d="M16.9474 39.6661H11.3912L16.9474 47.0471V87.7633H0.0869141V0L10.0329 13.2187L11.5388 15.2205L16.9474 22.4092V39.6661Z" fill="#43A66C"/>
<path d="M66.118 87.7629L61.7134 87.7974H61.6691L47.6778 87.896L45.3008 84.7355L23.0171 55.1228L22.8842 54.9404L21.3438 52.8942L20.2119 51.415C20.5859 51.6221 20.96 51.8243 21.3438 52.0116C22.3022 52.4964 23.2882 52.9245 24.2966 53.2936C29.5826 55.1901 35.311 55.4749 40.7584 54.112L41.4031 54.9601L45.2811 60.1174L61.6691 81.8462L61.7134 81.9103L66.118 87.7629Z" fill="#43A66C"/>
<path d="M34.3607 70.2007L22.1066 53.9792L21.2897 52.86L20.2119 51.3809C20.7483 51.6175 21.2897 51.8345 21.8359 52.0416C25.269 53.3187 28.9024 53.9699 32.5644 53.9645C35.0799 54.0097 37.5902 53.7212 40.0301 53.1065L40.9454 54.349L45.3746 60.2114L51.7034 68.5933" fill="url(#paint0_linear_9014_29040)"/>
<path d="M0.0698242 0H16.9549V31.2546L0.0698242 12.4742V0Z" fill="url(#paint1_linear_9014_29040)"/>
<path d="M61.5854 25.9543V29.1148C61.3767 32.834 60.4033 36.4698 58.7261 39.7943C55.8363 45.5119 51.0643 50.0542 45.2171 52.6531C38.5793 55.5936 31.0663 55.8602 24.2375 53.3976C23.2292 53.0301 22.2433 52.6037 21.2847 52.1206C20.9058 51.9283 20.5268 51.7311 20.1577 51.5191L16.885 47.1704L11.2797 39.6119L32.2937 39.7795H33.8882C40.158 39.4443 45.2072 34.065 45.2072 27.5863C45.2111 25.9803 44.8987 24.3892 44.2877 22.9043C43.6768 21.4194 42.7794 20.0699 41.647 18.9331C40.5146 17.7963 39.1694 16.8945 37.6885 16.2795C36.2077 15.6644 34.6202 15.3481 33.0171 15.3488H16.8604V22.5326L11.447 15.3488L9.94107 13.347L0 0.123318V5.5273e-05H33.8045C37.8174 -0.00793613 41.7849 0.850714 45.4367 2.51751C49.0885 4.18431 52.3388 6.6201 54.9662 9.65895C56.4638 11.3889 57.7385 13.3005 58.7606 15.3488C60.4176 18.6527 61.3791 22.2626 61.5854 25.9543Z" fill="#43B871"/>
</g>
<defs>
<linearGradient id="paint0_linear_9014_29040" x1="40.8027" y1="36.8161" x2="34.2635" y2="68.0806" gradientUnits="userSpaceOnUse">
<stop offset="0.2" stop-color="#43887E"/>
<stop offset="0.44" stop-color="#438D79" stop-opacity="0.64"/>
<stop offset="0.77" stop-color="#439373" stop-opacity="0.18"/>
<stop offset="0.92" stop-color="#439571" stop-opacity="0"/>
</linearGradient>
<linearGradient id="paint1_linear_9014_29040" x1="0.596405" y1="19.3227" x2="19.625" y2="10.475" gradientUnits="userSpaceOnUse">
<stop offset="0.16" stop-color="#43AF71" stop-opacity="0"/>
<stop offset="0.22" stop-color="#43AD71" stop-opacity="0.06"/>
<stop offset="0.31" stop-color="#43A971" stop-opacity="0.22"/>
<stop offset="0.43" stop-color="#43A371" stop-opacity="0.48"/>
<stop offset="0.56" stop-color="#439971" stop-opacity="0.84"/>
<stop offset="0.62" stop-color="#439571"/>
</linearGradient>
<clipPath id="clip0_9014_29040">
<rect width="243" height="88" fill="white"/>
</clipPath>
</defs>
</svg>
